<?xml version="1.0" encoding="utf-8"?>
<!-- Generator: Adobe Illustrator 25.4.1, SVG Export Plug-In . SVG Version: 6.00 Build 0)  -->
<svg version="1.1" id="Layer_1" xmlns="http://www.w3.org/2000/svg" xmlns:xlink="http://www.w3.org/1999/xlink" x="0px" y="0px"
	 viewBox="0 0 841.89 841.89" style="enable-background:new 0 0 841.89 841.89;" xml:space="preserve">
<style type="text/css">
	.st0{fill:#115370;}
	.st1{fill:#36B7AB;}
</style>
<g>
	<g>
		<circle class="st0" cx="598.82" cy="420.55" r="21.24"/>
		<path class="st1" d="M438.98,147.98C298.13,297.55,294.84,496.27,302.45,615.75c0.67,10.48,15.77,11.3,17.6,0.96
			c0.01-0.06,0.02-0.11,0.03-0.15c42.91-245.93,129.24-381.63,176.61-449.64c18.42-25.67,38.22-49.53,59.55-70.78
			c-6,6.18-157.11,168.36-231.82,561.15c-10.46,50.87-26.36,139.63-26.36,139.63c8.69,0.37,16.25-5.83,17.71-14.41
			c6.9-40.72,14.64-79.17,23-115.49c83.64-88.67,186.35-189.56,239.81-437.93c16.72-77.68,16.16-162.32,66.3-183.78
			C592.37,40.89,503.46,79.51,438.98,147.98z"/>
		<path class="st0" d="M528.91,393.24c-1.99,4.88-4.01,9.68-6.05,14.4c66.79,63.28,94.46,122.52,76.8,146.91
			c-22.38,30.92-120.74,10.19-231.49-69.97c-50.36-36.46-92.44-77.82-118.49-116.47c-24.31-36.07-31.7-65.8-20.28-81.58
			c6.56-9.06,19.62-13.68,37.62-13.68c20.72,0,48.01,6.21,79.33,18.78c1.87-4.47,3.81-8.93,5.82-13.39
			c-63.41-25.43-115.14-27.37-134.7-0.35c-15.48,21.39-8.38,56.35,20,98.45c27,40.05,70.35,82.72,122.07,120.17
			c76.19,55.15,152.49,86.2,202.63,86.2c22.58,0,39.86-6.3,49.43-19.52C636.35,529,600.98,460.36,528.91,393.24z"/>
		<circle class="st1" cx="239.29" cy="362.8" r="42.28"/>
	</g>
</g>
</svg>
