<?xml version="1.0" encoding="utf-8"?>
<!-- Generator: Adobe Illustrator 25.4.1, SVG Export Plug-In . SVG Version: 6.00 Build 0)  -->
<svg version="1.1" id="Layer_1" xmlns="http://www.w3.org/2000/svg" xmlns:xlink="http://www.w3.org/1999/xlink" x="0px" y="0px"
	 viewBox="0 0 841.89 595.28" style="enable-background:new 0 0 841.89 595.28;" xml:space="preserve">
<style type="text/css">
	.st0{fill:#115370;}
	.st1{fill:#36B7AB;}
</style>
<g>
	<g>
		<path class="st0" d="M300.39,283.85c-2.05-1.1-4.23-2.04-6.55-2.8c-2.32-0.76-4.52-1.14-6.63-1.14c-2.84,0-5.08,0.63-6.71,1.89
			c-1.63,1.26-2.45,3-2.45,5.21c0,1.58,0.56,2.96,1.7,4.14c1.13,1.18,2.59,2.21,4.38,3.08c1.79,0.87,3.68,1.7,5.68,2.49
			c1.74,0.63,3.44,1.38,5.13,2.25c1.68,0.87,3.22,1.92,4.62,3.16c1.39,1.24,2.5,2.81,3.31,4.73c0.81,1.92,1.22,4.22,1.22,6.9
			c0,3.05-0.75,5.8-2.25,8.25c-1.5,2.45-3.7,4.42-6.59,5.92c-2.89,1.5-6.34,2.25-10.34,2.25c-2.42,0-4.77-0.26-7.06-0.79
			c-2.29-0.52-4.46-1.24-6.51-2.13c-2.05-0.89-3.95-1.97-5.68-3.24l4.1-7.1c1.26,0.95,2.71,1.81,4.34,2.6
			c1.63,0.79,3.3,1.42,5.01,1.89c1.71,0.47,3.35,0.71,4.93,0.71s3.2-0.28,4.85-0.83c1.66-0.55,3.01-1.43,4.06-2.64
			c1.05-1.21,1.58-2.84,1.58-4.89c0-1.63-0.47-3.01-1.42-4.14c-0.95-1.13-2.17-2.13-3.67-3c-1.5-0.87-3.14-1.64-4.93-2.33
			c-1.74-0.68-3.55-1.45-5.44-2.29c-1.89-0.84-3.64-1.88-5.25-3.12c-1.61-1.24-2.88-2.75-3.83-4.54c-0.95-1.79-1.42-3.97-1.42-6.55
			c0-3.16,0.71-5.9,2.13-8.25c1.42-2.34,3.46-4.19,6.11-5.56c2.66-1.37,5.67-2.1,9.03-2.21c4.05,0,7.51,0.49,10.38,1.46
			c2.87,0.97,5.43,2.17,7.69,3.59L300.39,283.85z"/>
		<path class="st0" d="M340.31,272.1c4.37,0,8.1,0.74,11.2,2.21c3.1,1.47,5.48,3.59,7.14,6.35c1.66,2.76,2.49,6.06,2.49,9.9
			c0,2.26-0.35,4.54-1.06,6.83c-0.71,2.29-1.83,4.34-3.35,6.15c-1.53,1.82-3.54,3.29-6.04,4.42c-2.5,1.13-5.51,1.7-9.03,1.7h-8.36
			v19.88h-9.23V272.1H340.31z M341.58,300.66c2.05,0,3.75-0.34,5.09-1.03c1.34-0.68,2.39-1.54,3.16-2.56
			c0.76-1.03,1.31-2.12,1.66-3.27c0.34-1.16,0.51-2.18,0.51-3.08c0-0.95-0.16-1.97-0.47-3.08c-0.32-1.1-0.83-2.17-1.54-3.2
			c-0.71-1.03-1.74-1.87-3.08-2.52c-1.34-0.66-3.04-0.99-5.09-0.99h-8.52v19.73H341.58z"/>
		<path class="st0" d="M380.16,272.1h38.11v8.84h-28.88v15.31h25.72v8.84h-25.72v15.62h29.98v8.84h-39.21V272.1z"/>
		<path class="st0" d="M433.89,329.54l25.49-59.81h0.55l25.41,59.81h-10.49l-17.99-45.45l6.63-4.34l-20.51,49.79H433.89z
			 M449.99,308.24h19.57l3.16,7.73h-25.56L449.99,308.24z"/>
		<path class="st0" d="M512.32,294.19l-0.24,2.84l1.34-1.81l21.54-23.12h11.84l-23.75,25.09l24.62,32.35h-11.68l-19.65-26.51
			l-4.02,3.87v22.65h-9.31V272.1h9.31V294.19z"/>
		<path class="st1" d="M581.52,272.1c4.37,0,8.1,0.74,11.2,2.21c3.1,1.47,5.48,3.59,7.14,6.35s2.49,6.06,2.49,9.9
			c0,2.26-0.35,4.54-1.07,6.83c-0.71,2.29-1.83,4.34-3.35,6.15c-1.53,1.82-3.54,3.29-6.04,4.42c-2.5,1.13-5.51,1.7-9.04,1.7h-8.36
			v19.88h-9.23V272.1H581.52z M582.78,300.66c2.05,0,3.75-0.34,5.09-1.03c1.34-0.68,2.39-1.54,3.16-2.56
			c0.76-1.03,1.31-2.12,1.66-3.27c0.34-1.16,0.51-2.18,0.51-3.08c0-0.95-0.16-1.97-0.47-3.08s-0.83-2.17-1.54-3.2
			c-0.71-1.03-1.74-1.87-3.08-2.52c-1.34-0.66-3.04-0.99-5.09-0.99h-8.52v19.73H582.78z"/>
		<path class="st1" d="M617.81,300.9c0-3.95,0.76-7.69,2.29-11.24c1.53-3.55,3.63-6.69,6.31-9.43c2.68-2.73,5.79-4.88,9.31-6.43
			c3.52-1.55,7.34-2.33,11.44-2.33c4,0,7.77,0.78,11.32,2.33c3.55,1.55,6.69,3.7,9.43,6.43c2.73,2.74,4.86,5.88,6.39,9.43
			c1.53,3.55,2.29,7.3,2.29,11.24c0,4.05-0.76,7.84-2.29,11.36c-1.53,3.52-3.67,6.64-6.43,9.35c-2.76,2.71-5.91,4.81-9.43,6.31
			c-3.52,1.5-7.31,2.25-11.36,2.25s-7.84-0.75-11.36-2.25c-3.53-1.5-6.63-3.58-9.31-6.23s-4.79-5.76-6.31-9.31
			C618.57,308.83,617.81,305,617.81,300.9z M627.28,300.82c0,2.89,0.51,5.58,1.54,8.05c1.03,2.47,2.46,4.64,4.3,6.51
			c1.84,1.87,3.99,3.33,6.43,4.38c2.45,1.05,5.06,1.58,7.85,1.58c2.79,0,5.38-0.53,7.77-1.58c2.39-1.05,4.47-2.51,6.23-4.38
			c1.76-1.87,3.16-4.04,4.18-6.51c1.03-2.47,1.54-5.13,1.54-7.97c0-2.89-0.53-5.58-1.58-8.05c-1.05-2.47-2.47-4.66-4.26-6.55
			c-1.79-1.89-3.89-3.37-6.31-4.42c-2.42-1.05-5.02-1.58-7.81-1.58s-5.39,0.54-7.81,1.62c-2.42,1.08-4.54,2.55-6.35,4.42
			c-1.81,1.87-3.22,4.05-4.22,6.55C627.78,295.39,627.28,298.03,627.28,300.82z"/>
		<path class="st1" d="M696.71,272.1h38.11v8.84h-28.88v15.31h25.72v8.84h-25.72v15.62h29.98v8.84h-39.21V272.1z"/>
		<path class="st1" d="M752.42,272.1h38.43v8.84h-14.83v48.6h-9.15v-48.6h-14.44V272.1z"/>
	</g>
	<g>
		<circle class="st0" cx="206.76" cy="297.49" r="8.23"/>
		<path class="st1" d="M144.81,191.86C90.23,249.82,88.96,326.83,91.9,373.13c0.26,4.06,6.11,4.38,6.82,0.37
			c0-0.02,0.01-0.04,0.01-0.06c16.63-95.31,50.08-147.89,68.44-174.25c7.14-9.95,14.81-19.2,23.08-27.43
			c-2.33,2.39-60.89,65.25-89.84,217.47c-4.05,19.71-10.22,54.11-10.22,54.11c3.37,0.14,6.3-2.26,6.86-5.58
			c2.68-15.78,5.67-30.68,8.91-44.76c32.42-34.36,72.22-73.46,92.94-169.71c6.48-30.1,6.26-62.9,25.69-71.22
			C204.26,150.35,169.8,165.32,144.81,191.86z"/>
		<path class="st0" d="M179.67,286.9c-0.77,1.89-1.55,3.75-2.34,5.58c25.88,24.52,36.61,47.48,29.76,56.93
			c-8.67,11.98-46.79,3.95-89.71-27.12c-19.52-14.13-35.83-30.16-45.92-45.14c-9.42-13.98-12.29-25.5-7.86-31.62
			c2.54-3.51,7.6-5.3,14.58-5.3c8.03,0,18.6,2.41,30.74,7.28c0.72-1.73,1.48-3.46,2.26-5.19c-24.57-9.85-44.62-10.61-52.2-0.13
			c-6,8.29-3.25,21.84,7.75,38.15c10.46,15.52,27.26,32.06,47.31,46.57c29.53,21.37,59.09,33.41,78.53,33.41
			c8.75,0,15.45-2.44,19.16-7.57C221.3,339.51,207.6,312.91,179.67,286.9z"/>
		<circle class="st1" cx="67.43" cy="275.1" r="16.38"/>
	</g>
</g>
</svg>
